<?xml-stylesheet type="text/css" href="../style/main.css" ?>
<svg viewBox="0 0 16 16" width="50px" version="1.1" xmlns="http://www.w3.org/2000/svg" xmlns:xlink="http://www.w3.org/1999/xlink">
    <title>compass icon</title>
    <path id="compass" d="M8.543 8.6l-2.035.917.938-2.088 1.11 1.14-.013.03zm3.632-5.01l-.095.043-5.784 2.61-2.624 5.848c-.085.188.02.37.247.273v.004l5.783-2.61 2.66-5.928v-.003l.015-.028c.08-.178-.04-.283-.203-.21zM8 14.467c-3.565 0-6.467-2.902-6.467-6.467 0-3.565 2.902-6.467 6.467-6.467 3.565 0 6.467 2.902 6.467 6.467 0 3.565-2.902 6.467-6.467 6.467M8 0C3.583 0 0 3.583 0 8c0 4.42 3.583 8 8 8s8-3.58 8-8c0-4.417-3.583-8-8-8" fill-rule="evenodd"></path>
</svg>