<?xml-stylesheet type="text/css" href="../style/main.css" ?>
<svg viewBox="0 0 26 16" version="1.1" xmlns="http://www.w3.org/2000/svg" xmlns:xlink="http://www.w3.org/1999/xlink">
    <title>embed icon</title>
    <path id="embed" d="M25.33 7.473L18.005 2.32c-.213-.152-.432-.074-.432.186V4.4c0 .302.016.38.186.496l4.21 2.962v.002l.083.06-.084.06v.003l-4.21 2.962c-.17.115-.187.193-.187.494v1.894c0 .26.22.336.432.186l7.325-5.152c.23-.162.342-.307.342-.448 0-.142-.113-.285-.342-.447zM13.81 0c-.134 0-.19.074-.214.176L11.47 8h.002l-2.124 7.818c-.037.13-.006.182.115.182h1.995c.135 0 .188-.074.213-.176h.003L13.797 8 15.92.18c.036-.13.005-.182-.116-.182H13.81zM7.666 2.32L.342 7.472c-.23.16-.342.305-.342.448 0 .142.113.286.342.446l7.325 5.155c.213.15.432.075.432-.187v-1.895c0-.3-.017-.377-.187-.493L3.7 7.98h.003l-.084-.06.083-.062-.002-.002 4.213-2.962c.17-.115.186-.193.186-.494V2.507c0-.262-.22-.338-.433-.188z" fill-rule="evenodd"></path>
</svg>