<?xml-stylesheet type="text/css" href="../style/main.css" ?>
<svg viewBox="0 0 19 16" version="1.1" xmlns="http://www.w3.org/2000/svg" xmlns:xlink="http://www.w3.org/1999/xlink">
<title>heart icon</title>
<path id="heart" d="M17.122.952C15.87.042 14.17-.204 12.68.164c-1.452.368-2.547 1.46-3.204 2.734C8.82 1.624 7.726.532 6.276.164 4.783-.204 3.082.04 1.83.952.227 2.118-.367 4.202.224 6.075.666 7.48 1.637 8.722 2.67 9.753c2.1 2.102 5.254 5.032 6.372 6.062.11.112.264.185.434.185.172 0 .324-.073.436-.185 1.118-1.03 4.27-3.96 6.373-6.062 1.03-1.03 2-2.273 2.445-3.678.59-1.874-.003-3.957-1.608-5.123" fill-rule="evenodd"></path>
</svg>