<?xml-stylesheet type="text/css" href="../style/main.css" ?>
<svg viewBox="0 0 20 14" version="1.1" xmlns="http://www.w3.org/2000/svg" xmlns:xlink="http://www.w3.org/1999/xlink">
    <title>mail icon</title>
    <path id="mail" d="M0 12.356l5.6-5.65L0 1.526v10.83zm9.628-3.79c.23 0 .463-.09.657-.27L18.987.25c.097-.09.03-.25-.105-.25H.374C.238 0 .172.16.27.25l8.7 8.046c.195.18.427.27.658.27zm4.026-1.86l5.602 5.65V1.527l-5.602 5.18zm-2.578 2.546c-.402.36-.916.56-1.448.56-.532 0-1.047-.2-1.45-.56L6.427 7.675.444 13.542c-.164.162-.045.436.19.436h17.987c.238 0 .357-.274.19-.436l-5.98-5.867-1.754 1.577z" fill-rule="evenodd"></path>
</svg>