<?xml-stylesheet type="text/css" href="../style/main.css" ?>
<svg viewBox="0 0 16 16" width="15px" version="1.1" xmlns="http://www.w3.org/2000/svg" xmlns:xlink="http://www.w3.org/1999/xlink">
    <title>search icon</title>
    <path id="search" d="M6.678 11.222c-2.507 0-4.544-2.04-4.544-4.545 0-2.506 2.037-4.545 4.544-4.545 2.506 0 4.545 2.04 4.545 4.545 0 2.506-2.04 4.545-4.545 4.545m9.26 3.208l-3.852-3.852c.795-1.1 1.27-2.445 1.27-3.9C13.356 2.994 10.36 0 6.678 0 2.995 0 0 2.995 0 6.677c0 3.682 2.995 6.677 6.678 6.677 1.457 0 2.802-.473 3.9-1.268l3.85 3.85c.037.037.082.064.138.064.056 0 .104-.027.142-.065l1.236-1.238c.035-.033.06-.077.06-.128 0-.057-.025-.105-.065-.14" fill-rule="evenodd"></path>
</svg>