<?xml-stylesheet type="text/css" href="../style/main.css" ?>
<svg viewBox="0 0 18 15" version="1.1" xmlns="http://www.w3.org/2000/svg" xmlns:xlink="http://www.w3.org/1999/xlink">
    <title>twitter icon</title>
    <path id="twitter" d="M0 12.727c.26.04.546.06.852.06.796 0 1.575-.154 2.336-.46.762-.308 1.463-.72 2.106-1.237-.768-.006-1.46-.243-2.076-.712C2.6 9.908 2.182 9.318 1.96 8.6c.24.046.46.07.665.07.33 0 .648-.043.955-.13-.824-.164-1.51-.574-2.054-1.23C.98 6.653.708 5.893.708 5.03v-.043c.51.278 1.05.426 1.62.443-.495-.33-.886-.756-1.173-1.28-.287-.522-.43-1.084-.43-1.686 0-.586.162-1.165.485-1.74.898 1.092 1.984 1.957 3.257 2.596 1.273.64 2.645 1 4.117 1.08-.05-.223-.077-.5-.077-.828 0-.99.348-1.832 1.044-2.528C10.25.348 11.09 0 12.08 0c1.016 0 1.894.375 2.633 1.125.812-.165 1.565-.454 2.26-.87-.274.865-.8 1.527-1.578 1.987.71-.08 1.398-.27 2.063-.57-.478.72-1.072 1.34-1.782 1.857v.468c0 .795-.1 1.595-.303 2.4-.2.804-.49 1.585-.87 2.344-.377.758-.86 1.467-1.452 2.126-.59.66-1.252 1.235-1.986 1.727-.733.49-1.578.88-2.535 1.163-.96.284-1.97.426-3.032.426-2.154 0-3.986-.486-5.498-1.457z" fill-rule="evenodd"></path>
</svg>