<?xml version="1.0" encoding="UTF-8" standalone="no"?>
<svg width="29px" height="92px" viewBox="0 0 29 92" version="1.1" xmlns="http://www.w3.org/2000/svg" xmlns:xlink="http://www.w3.org/1999/xlink" xmlns:sketch="http://www.bohemiancoding.com/sketch/ns">
    <!-- Generator: Sketch Beta 3.3.2 (12041) - http://www.bohemiancoding.com/sketch -->
    <title>Group</title>
    <desc>Created with Sketch Beta.</desc>
    <defs></defs>
    <g id="Auto-Mute" stroke="none" stroke-width="1" fill="none" fill-rule="evenodd" sketch:type="MSPage">
        <g id="Group" sketch:type="MSLayerGroup" fill="#FFFFFF">
            <path d="M4.46042742,6.43482068 L0.455085478,6.43482068 C0.203461542,6.43482068 0,6.63832535 0,6.8890195 L0,16.110632 C0,16.3613261 0.203461542,16.5648308 0.455085478,16.5648308 L4.46042742,16.5648308 C4.71106845,16.5648308 4.91452999,16.3613261 4.91452999,16.110632 L4.91452999,6.8890195 C4.91452999,6.63832535 4.71106845,6.43482068 4.46042742,6.43482068 Z M12.8132609,0.22910807 L11.1344574,1.68608351 L8.51304715,3.96101008 L7.22838901,5.07586174 C6.98364541,5.28821443 6.78313259,5.72766654 6.78313259,6.05209427 L6.78313259,16.987275 C6.78313259,17.3117027 6.98364541,17.7501717 7.22937191,17.9625244 L9.79672238,20.1745317 L11.1374062,21.329691 L12.8103122,22.7719198 C13.3017652,23.195642 13.7037737,23.0117997 13.7037737,22.3629442 L13.7037737,0.636117404 C13.7037737,-0.0127380565 13.303731,-0.195597323 12.8132609,0.22910807 Z M25.3452141,11.4997274 L28.2595304,8.58479342 C28.4885475,8.35572778 28.4885475,7.9801781 28.2595304,7.75111246 L26.6613252,6.15158544 C26.4323081,5.9225198 26.056838,5.9225198 25.826838,6.15158544 L22.9125217,9.06651944 L19.9982055,6.15158544 C19.7691884,5.9225198 19.3937183,5.9225198 19.1647012,6.15158544 L17.566496,7.75111246 C17.336496,7.9801781 17.336496,8.35572778 17.566496,8.58479342 L20.4808123,11.4997274 L17.566496,14.4146614 C17.336496,14.6437271 17.336496,15.0192767 17.566496,15.2483424 L19.1647012,16.8478694 C19.3937183,17.076935 19.7691884,17.076935 19.9982055,16.8478694 L22.9125217,13.9329354 L25.826838,16.8478694 C26.056838,17.076935 26.4323081,17.076935 26.6613252,16.8478694 L28.2595304,15.2483424 C28.4885475,15.0192767 28.4885475,14.6437271 28.2595304,14.4146614 L25.3452141,11.4997274 Z" id="Fill-26-Copy-3" sketch:type="MSShapeGroup"></path>
            <path d="M19.074286,51.8466234 L16.8023088,54.4725218 C17.5307965,55.1980601 17.9899109,56.1900225 17.9899109,57.2999586 C17.9899109,58.6281461 17.3400723,59.7980521 16.3451606,60.5285061 L18.6141885,63.1514551 C20.3375879,61.7790275 21.4494902,59.6702472 21.4494902,57.2999586 C21.4494902,55.1479213 20.5312614,53.2131523 19.074286,51.8466234 Z M4.46137285,52.4341325 L0.455181937,52.4341325 C0.203504667,52.4341325 0,52.6376372 0,52.8883313 L0,62.1099438 C0,62.3606379 0.203504667,62.5641426 0.455181937,62.5641426 L4.46137285,62.5641426 C4.712067,62.5641426 4.91557167,62.3606379 4.91557167,62.1099438 L4.91557167,52.8883313 C4.91557167,52.6376372 4.712067,52.4341325 4.46137285,52.4341325 Z M12.8159768,46.2291081 L11.1368175,47.6860835 L8.51485156,49.9610101 L7.22992113,51.0758617 C6.98512566,51.2882144 6.78457033,51.7276665 6.78457033,52.0520943 L6.78457033,62.987275 C6.78457033,63.3117027 6.98512566,63.7501717 7.23090424,63.9625244 L9.79879888,66.1745317 L11.1397668,67.329691 L12.8130274,68.7719198 C13.3045846,69.195642 13.7066784,69.0117997 13.7066784,68.3629442 L13.7066784,46.6361174 C13.7066784,45.9872619 13.3065508,45.8044027 12.8159768,46.2291081 Z" id="Fill-12-Copy-3" sketch:type="MSShapeGroup"></path>
            <path d="M4.46137285,29.4341325 L0.455181937,29.4341325 C0.203504667,29.4341325 0,29.6376372 0,29.8883313 L0,39.1099438 C0,39.3606379 0.203504667,39.5641426 0.455181937,39.5641426 L4.46137285,39.5641426 C4.712067,39.5641426 4.91557167,39.3606379 4.91557167,39.1099438 L4.91557167,29.8883313 C4.91557167,29.6376372 4.712067,29.4341325 4.46137285,29.4341325 Z M12.8159768,23.2291081 L11.1368175,24.6860835 L8.51485156,26.9610101 L7.22992113,28.0758617 C6.98512566,28.2882144 6.78457033,28.7276665 6.78457033,29.0520943 L6.78457033,39.987275 C6.78457033,40.3117027 6.98512566,40.7501717 7.23090424,40.9625244 L9.79879888,43.1745317 L11.1397668,44.329691 L12.8130274,45.7719198 C13.3045846,46.195642 13.7066784,46.0117997 13.7066784,45.3629442 L13.7066784,23.6361174 C13.7066784,22.9872619 13.3065508,22.8044027 12.8159768,23.2291081 Z" id="Fill-12-Copy-5" sketch:type="MSShapeGroup"></path>
            <path d="M19.074286,74.8466234 L16.8023088,77.4725218 C17.5307965,78.1980601 17.9899109,79.1900225 17.9899109,80.2999586 C17.9899109,81.6281461 17.3400723,82.7980521 16.3451606,83.5285061 L18.6141885,86.1514551 C20.3375879,84.7790275 21.4494902,82.6702472 21.4494902,80.2999586 C21.4494902,78.1479213 20.5312614,76.2131523 19.074286,74.8466234 Z M23.3308761,69.9411778 L21.0657807,72.5592113 C23.3967448,74.3494625 24.9087746,77.1533045 24.9087746,80.3140171 C24.9087746,83.6939642 23.183409,86.6698513 20.5722573,88.429626 L22.8452177,91.0565075 C26.184857,88.6488604 28.368354,84.7370485 28.368354,80.3140171 C28.368354,76.1102202 26.3932773,72.3694702 23.3308761,69.9411778 Z M4.46137285,75.4341325 L0.455181937,75.4341325 C0.203504667,75.4341325 0,75.6376372 0,75.8883313 L0,85.1099438 C0,85.3606379 0.203504667,85.5641426 0.455181937,85.5641426 L4.46137285,85.5641426 C4.712067,85.5641426 4.91557167,85.3606379 4.91557167,85.1099438 L4.91557167,75.8883313 C4.91557167,75.6376372 4.712067,75.4341325 4.46137285,75.4341325 Z M12.8159768,69.2291081 L11.1368175,70.6860835 L8.51485156,72.9610101 L7.22992113,74.0758617 C6.98512566,74.2882144 6.78457033,74.7276665 6.78457033,75.0520943 L6.78457033,85.987275 C6.78457033,86.3117027 6.98512566,86.7501717 7.23090424,86.9625244 L9.79879888,89.1745317 L11.1397668,90.329691 L12.8130274,91.7719198 C13.3045846,92.195642 13.7066784,92.0117997 13.7066784,91.3629442 L13.7066784,69.6361174 C13.7066784,68.9872619 13.3065508,68.8044027 12.8159768,69.2291081 Z" id="Fill-12-Copy-4" sketch:type="MSShapeGroup"></path>
        </g>
    </g>
</svg>